:SAMPLES-PER-SECOND 30
:FULLY-SPECIFIED
:DEGREES
59
root  10.72442212 38.66755568 -9.302800096 -10.33129978 -48.78710175 9.033900261
lfemur  -23.63539696 -2.819789886 -8.445632935
ltibia  -1.491570742e-006 -8.364404493e-007 49.21308899
lfoot  5.521815751e-007 -7.636373997 3.574620008
ltoes  -4.250644065 -19.5611806 -102.515957
rfemur  -15.45629501 13.06950092 3.02798748
rtibia  -8.727266732e-007 2.533748784e-007 61.30848694
rfoot  -2.316020982e-006 -20.12519455 -3.852309704
rtoes  5.373923086 19.29304026 -105.8922705
lowerback  10.52799988 1.937540054 -2.784039974
upperback  4.070179939 2.202889919 -0.5790089965
thorax  -1.742830038 1.051079988 0.7047790289
rclavicle  0 -9.442270133e-015 7.951389973e-016
rhumerus  10.49690056 14.41409969 -76.77559662
rradius  -7.782816926e-012 0.001642658608 142.3200073
rwrist  0.002739921212 0.003270594636 -23.35490036
rthumb  -92.93752616 -24.25625642 -97.11982154
rhand  -7.920061211e-032 -33.2840004 9.303460121
rfingers  -90 -7.125020027 -90
lclavicle  0 -9.442270133e-015 7.951389973e-016
lhumerus  18.00060081 -6.850830555 64.45320129
lradius  1.032090038e-011 -0.003413996194 137.5480042
lwrist  1.816137865e-011 1.409039812e-011 13.83049965
lthumb  89.89689403 5.08795885 91.16245106
lhand  -1.496451383e-031 -27.76390076 20.11240005
lfingers  90 7.125020027 -90
lowerneck  0.5813099742 6.070919991 -5.073190212
upperneck  10.83899975 7.505449772 7.741270065
head  2.893779993 3.7509799 3.60442996
60
root  10.70500021 38.89777717 -9.456400233 -9.958060265 -48.85409927 8.879190445
lfemur  -23.41669655 -3.473129988 -8.162453651
ltibia  -1.491570742e-006 -8.364404493e-007 47.96589279
lfoot  5.521815751e-007 -6.514854431 3.999840021
ltoes  -4.250644065 -19.5611806 -102.515957
rfemur  -15.57499409 13.01160049 2.864287376
rtibia  -8.727266732e-007 2.533748784e-007 60.27898788
rfoot  -2.316020982e-006 -18.82939339 -2.061899185
rtoes  5.373923086 19.29304026 -105.8922705
lowerback  10.4605999 1.938619971 -2.758729935
upperback  4.118150234 2.207999945 -0.6259750128
thorax  -1.653620005 1.050362587 0.644513011
rclavicle  0 -9.442270133e-015 7.951389973e-016
rhumerus  11.13670063 14.23340034 -76.67790222
rradius  -7.782816926e-012 0.001642658608 142.5050049
rwrist  0.002739921212 0.003270594636 -23.19129944
rthumb  -92.93752616 -24.25625642 -97.11982154
rhand  -7.920061211e-032 -33.2840004 9.303460121
rfingers  -90 -7.125020027 -90
lclavicle  0 -9.442270133e-015 7.951389973e-016
lhumerus  18.08920097 -6.743479729 64.62290192
lradius  1.032089865e-011 -0.003346919315 137.6040039
lwrist  1.816137865e-011 1.409039812e-011 13.89850044
lthumb  89.89689403 5.08795885 91.16245106
lhand  -1.496451383e-031 -27.76390076 20.11240005
lfingers  90 7.125020027 -90
lowerneck  0.6769329906 6.150889874 -5.238659859
upperneck  11.09300041 7.601480007 7.706299782
head  2.951550007 3.787450075 3.628609896
61
root  10.68435579 39.12288936 -9.596510759 -9.533399582 -48.93569946 8.799619675
lfemur  -23.28679848 -4.183080196 -7.962999821
ltibia  -1.491570742e-006 -8.364404493e-007 46.7695961
lfoot  5.521815751e-007 -5.486077309 4.417160511
ltoes  -4.250644065 -19.5611806 -102.515957
rfemur  -15.82019806 12.85200024 2.576109886
rtibia  -8.727266732e-007 2.533748784e-007 59.24329758
rfoot  -2.316020982e-006 -17.5617981 -0.1652217507
rtoes  5.373923086 19.29304026 -105.8922705
lowerback  10.25605965 1.937954187 -2.756818295
upperback  4.153679848 2.222379923 -0.696475029
thorax  -1.502589941 1.04989171 0.5756769776
rclavicle  0 -9.442270133e-015 7.951389973e-016
rhumerus  11.85321903 13.93647766 -76.46974945
rradius  -7.782816926e-012 0.001642658608 142.6840057
rwrist  0.002739921212 0.003270594636 -23.22450066
rthumb  -92.93752616 -24.25625642 -97.11982154
rhand  -7.920061211e-032 -33.2840004 9.303460121
rfingers  -90 -7.125020027 -90
lclavicle  0 -9.442270133e-015 7.951389973e-016
lhumerus  18.05046844 -6.539477825 64.89015198
lradius  1.032090038e-011 -0.003280287841 137.4989929
lwrist  1.816137865e-011 1.409039812e-011 13.9708004
lthumb  89.89689403 5.08795885 91.16245106
lhand  -1.496451383e-031 -27.76390076 20.11240005
lfingers  90 7.125020027 -90
lowerneck  0.6836850047 6.227940083 -5.43076992
upperneck  11.39530373 7.689313412 7.751551151
head  3.039330006 3.82220006 3.692059994
62
root  10.67297778 39.32022335 -9.748266626 -8.814399719 -48.99039841 8.508680344
lfemur  -23.38289452 -4.775680065 -7.591892242
ltibia  -1.491570742e-006 -8.364404493e-007 45.70438766
lfoot  5.521815751e-007 -4.596923828 4.463659763
ltoes  -4.250644065 -19.5611806 -102.515957
rfemur  -16.25609589 12.58880043 2.430319548
rtibia  -8.727266732e-007 2.533748784e-007 58.24808884
rfoot  -2.316020982e-006 -16.30449486 1.543580413
rtoes  5.373923086 19.29304026 -105.8922705
lowerback  10.07827854 1.92865932 -2.704073191
upperback  4.032440186 2.21916008 -0.6932910085
thorax  -1.529340029 1.049458623 0.553335011
rclavicle  0 -9.442270133e-015 7.951389973e-016
rhumerus  12.48448563 13.61584187 -76.24507141
rradius  -7.782816926e-012 0.001642658608 142.8540039
rwrist  0.002739921212 0.003270594636 -23.23801994
rthumb  -92.93752616 -24.25625642 -97.11982154
rhand  -7.920061211e-032 -33.2840004 9.303460121
rfingers  -90 -7.125020027 -90
lclavicle  0 -9.442270133e-015 7.951389973e-016
lhumerus  17.933424 -6.602824688 65.00183105
lradius  1.032090125e-011 -0.003214062192 137.7070007
lwrist  1.816137865e-011 1.409039812e-011 13.67319965
lthumb  89.89689403 5.08795885 91.16245106
lhand  -1.496451383e-031 -27.76390076 20.11240005
lfingers  90 7.125020027 -90
lowerneck  0.8987339735 6.321239948 -5.701169968
upperneck  11.73469734 7.777319908 7.904170036
head  3.094219923 3.852760077 3.798229933
